{"title":"Straightheads 2007  x264 (DVDRip) TiCTaC","uid":8804109,"size":703514461,"categoryP":"video","categoryS":"movies","magnet":"?xt=urn:btih:3db1088e07258df14627f3394edf57409877840e&amp;dn=Straightheads+2007++x264+%28DVDRip%29+TiCTaC&amp;tr=udp%3A%2F%2Ftracker.openbittorrent.com%3A80&amp;tr=udp%3A%2F%2Fopen.demonii.com%3A1337&amp;tr=udp%3A%2F%2Ftracker.coppersurfer.tk%3A6969&amp;tr=udp%3A%2F%2Fexodus.desync.com%3A6969","seeders":0,"leechers":6,"uploader":"AN0NYMOUS142857","files":1,"time":1376282818,"description":"Rating  5.7 / 10\n4,143 people voted\nReleased\t  2007\nGenre\tDrama, Horror, Thriller\nActors \tDanny Dyer, Gillian Anderson, Adam Rayner\nPlot\tAfter surviving a gang rape and mugging, a middle aged businesswoman and her 23 year old boyfriend plot to murder their attackers, but find themselves conflicted about carrying out their plans.\n\nIMDB link\t\n &lt;a href=&quot;\nhttp://www.imdb.com/title/tt0480011/&quot; rel=&quot;nofollow&quot; target=&quot;_NEW&quot;&gt;\nhttp://www.imdb.com/title/tt0480011/&lt;/a&gt;\n\nCast\nCredited cast:\nDanny Dyer Danny Dyer ...\nAdam\nGillian Anderson Gillian Anderson ...\nAlice\nAdam Rayner Adam Rayner ...\nJago\nAntony Byrne Antony Byrne ...\nMisha (as Anthony Byrne)\nAnthony Calf Anthony Calf ...\nHeffer\nRalph Brown Ralph Brown ...\nJamie\nSteven Robertson Steven Robertson ...\nBill\nGugu Mbatha-Raw Gugu Mbatha-Raw ...\nYoung PA\nNeil Finnighan Neil Finnighan ...\nMan On Horse\nFrancesca Fowler Francesca Fowler ...\nSophie\nRest of cast listed alphabetically:\nAllan Gentleman Allan Gentleman ...\nAccountant\nFull cast and crew Â»\nEdit\nStoryline\n\n\nGenres:\nThriller\n\n\nCountry:\nUK\n\nLanguage:\nEnglish\n\nRelease Date:\n27 April 2007 (Ireland)\n\nRuntime:\n80 min\n\n\nStraightheads 2007 .x264 (DVDRip) TiCTaC.mkv\n\n\nFormat                                   : Matroska\nFormat version                           : Version 2\nFile size                                : 671 MiB\nDuration                                 : 1h 17mn\nOverall bit rate                         : 1 217 Kbps\nWriting application                      : Lavf53.6.0\nWriting library                          : Lavf53.6.0\n\nVideo\nID                                       : 1\nFormat                                   : AVC\nFormat/Info                              : Advanced Video Codec\nCodec ID                                 : V_MPEG4/ISO/AVC\nDuration                                 : 1h 17mn\nBit rate                                 : 1 001 Kbps\nWidth                                    : 1 080 pixels\nHeight                                   : 720 pixels\nDisplay aspect ratio                     : 3:2\nFrame rate                               : 29.970 fps\nBits/(Pixel*Frame)                       : 0.043\nStream size                              : 552 MiB (82%)\nDefault                                  : Yes\nForced                                   : No\n\nAudio\nID                                       : 2\nFormat                                   : AC-3\nFormat/Info                              : Audio Coding 3\nMode extension                           : CM (complete main)\nFormat settings, Endianness              : Big\nCodec ID                                 : A_AC3\nDuration                                 : 1h 17mn\nBit rate mode                            : Constant\nBit rate                                 : 192 Kbps\nChannel(s)                               : 2 channels\nChannel positions                        : Front: L R\nSampling rate                            : 44.1 KHz\nBit depth                                : 16 bits\nCompression mode                         : Lossy\nStream size                              : 106 MiB (16%)\nDefault                                  : Yes\nForced                                   : No","torrent":{"xt":"urn:btih:3db1088e07258df14627f3394edf57409877840e","amp;dn":"Straightheads+2007++x264+%28DVDRip%29+TiCTaC","amp;tr":["udp%3A%2F%2Ftracker.openbittorrent.com%3A80","udp%3A%2F%2Fopen.demonii.com%3A1337","udp%3A%2F%2Ftracker.coppersurfer.tk%3A6969","udp%3A%2F%2Fexodus.desync.com%3A6969"],"infoHash":"3db1088e07258df14627f3394edf57409877840e","infoHashBuffer":{"type":"Buffer","data":[61,177,8,142,7,37,141,241,70,39,243,57,78,223,87,64,152,119,132,14]},"announce":[],"urlList":[]}}